<mxfile host="app.diagrams.net" modified="2023-10-08T05:27:25.918Z" agent="Mozilla/5.0 (Windows NT 10.0; Win64; x64) AppleWebKit/537.36 (KHTML, like Gecko) Chrome/117.0.0.0 Safari/537.36 Edg/117.0.2045.47" version="22.0.0" etag="KBRiuVemRhF7d75j4s8Q" type="github">
  <diagram name="第 1 页" id="C5l_8MTJy6E7nvTT6cx1">
    <mxGraphModel>
      <root>
        <mxCell id="0" />
        <mxCell id="1" parent="0" />
      </root>
    </mxGraphModel>
  </diagram>
</mxfile>
